<?xml version="1.0" encoding="UTF-8"?>
<svg id="Layer_1" data-name="Layer 1" xmlns="http://www.w3.org/2000/svg" viewBox="0 0 909 400.4">
  <defs>
    <style>
      .cls-1 {
        fill: #373737;
      }
    </style>
  </defs>
  <path class="cls-1" d="M385,392.7h-88V168.85l-99.55,163.35h-9.9L88,168.85v223.85H0V7.7H88l104.5,171.05L297,7.7h88V392.7Z"/>
  <path class="cls-1" d="M498.85,397.9l-12.4-13.4c-9.8,6.8-21.8,11-36.2,11-28.8,0-50-15.8-50-42.2,0-16,8-31,22.4-40.2-3.6-6.2-5.8-13.2-5.8-22.2,0-23.6,18.2-41,45-41,20.2,0,37.4,10,46,30.6l-27.4,15.8c-3.6-9.4-9.2-15.2-18.2-15.2-8,0-13.4,5-13.4,11.8,0,7.8,4.8,13,11,19.8l25.8,28.6c2.8-6.4,5-13.8,6.6-22l26.8,15.2c-2.6,9.8-6.8,20.2-12.8,29.4l17.6,19.6-25,14.4Zm-32-34.8l-25.6-27.6-1.2-1.2c-5.2,4.2-7.4,10-7.4,15.6,0,9.4,6,16.4,20.2,16.4,5.2,0,9.8-1,14-3.2Z"/>
  <path class="cls-1" d="M508.6,200.2C508.6,86.9,598.25,0,708.8,0s200.2,86.9,200.2,200.2-89.65,200.2-200.2,200.2-200.2-86.9-200.2-200.2Zm312.4,0c0-68.75-49.5-114.4-112.2-114.4s-112.2,45.65-112.2,114.4,49.5,114.4,112.2,114.4,112.2-45.65,112.2-114.4Z"/>
</svg>